/* XPM */
static char * c_sprites_xpm[] = {
"170 42 12 1",
" 	c #ACBD4F",
".	c #011919",
"+	c #191919",
"@	c #170406",
"#	c #BECEE2",
"$	c #BFD0E3",
"%	c #FEFFFF",
"&	c #FFFFFF",
"*	c #000000",
"=	c #BECFE2",
"-	c #412120",
";	c #412C2B",
"                                                                                                                                                                          ",
"                                                                                                                                                                          ",
"                                                                                                                                                                          ",
"                                                                                                                                                                          ",
"                                                                                                                                                                          ",
"                                                                                                                                                                          ",
"                                                                                                                                                                          ",
"                                                                                                                                                                          ",
"                                                                                                                                                                          ",
"                                                                                                                                                                          ",
"                                                                                                                                                                          ",
"                                                                                                                                                                          ",
"                                                                                                                                                                          ",
"                                                                                                                                                                          ",
"                                             ..+                    @@@                                                       ..+                    ...                  ",
"                                            .###.                  .$$$@                                                     .###.                  .$$$.                 ",
"                                           .##%%%+                .$&%%$.                                                   .##%%%+                .$&%%$.                ",
"     ..+                    ...            .#%%%%$*+++*+++++++**..%%&%%$.             ..+                    ...            .#%%%%$*+++*+++++++**..%%&%%$.                ",
"    .###.                  .$$$.            .%%%%&$$$$$$=$$$$$$$$$%&$%%.             .###.                  .$$$.            .%%%%&$$$$$$=$$$$$$$$$%&$%%.                 ",
"   .##%%%+                .$&%%$.            .%&&%&&&&&&&&&&&&&&%%%%$$.             .##%%%+                .$&%%$.            .%&&%&&&&&&&&&&&&&&%%%%$$.                  ",
"   .#%%%%$*+++*+++++++**..%%&%%$.           .%%%%%&&&&&&&&&&&&&&%%%%%&$.            .#%%%%$*+++*+++++++**..%%&%%$.           .%%%%%&&&&&&&&&&&&&&%%%%%&$.                 ",
"    .%%%%&$$$$$$=$$$$$$$$$%&$%%.           .$%%%%&*+++**+++++++*..%%%%%$.            .%%%%&$$$$$$=$$$$$$$$$%&$%%.           .$%%%%&*+++**+++++++*..%%%%%$.                ",
"     .%&&%&&&&&&&&&&&&&&%%%%$$.            .$$%%$+                .$%%$$.             .%&&%&&&&&&&&&&&&&&%%%%$$.            .$$%%$+                .$%%$$.                ",
"    .%%%%%&&&&&&&&&&&&&&%%%%%&$.            .$$$.                  .$$$.             .%%%%%&&&&&&&&&&&&&&%%%%%&$.            .$$$.                  .$$$.                 ",
"   .$%%%%&*+++**+++++++*..%%%%%$.            ...                    ...             .$%%%%&*+++**+++++++*..%%%%%$.            ...                    ...                  ",
"   .$$%%$+                .$%%$$.                 ----- ---------;                  .$$%%$+                .$%%$$.                 ----- ---------;                       ",
"    .$$$.                  .$$$.                   ------ ;---;                      .$$$.                  .$$$.                   ------ ;---;                          ",
"     ...                    ...                                                       ...                    ...                                                          ",
"          ----- ---------;                                                                 ----- ---------;                                                               ",
"           ------ ;---;                                                                     ------ ;---;                                                                  ",
"                                                                                                                                                                          ",
"                                                                                                                                                                          ",
"                                                                                                                                                                          ",
"                                                                                                                                                                          ",
"                                                                                                                                                                          ",
"                                                                                                                                                                          ",
"                                                                                                                                                                          ",
"                                                                                                                                                                          ",
"                                                                                                                                                                          ",
"                                                                                                                                                                          ",
"                                                                                                                                                                          ",
"                                                                                                                                                                          "};
