/* XPM */
static char * w_sprites_xpm[] = {
"162 41 33 1",
" 	c None",
".	c #04172A",
"+	c #FEFEFE",
"@	c #052C53",
"#	c #052D56",
"$	c #1C4C7D",
"%	c #061A2E",
"&	c #EDFE01",
"*	c #ECFD02",
"=	c #1C4C7B",
"-	c #3C5063",
";	c #3C5061",
">	c #191B0B",
",	c #165697",
"'	c #ACBD4F",
")	c #165696",
"!	c #191C0D",
"~	c #191C0E",
"{	c #ECFD05",
"]	c #1777E1",
"^	c #191D17",
"/	c #2278E0",
"(	c #E1B111",
"_	c #E3AB24",
":	c #061727",
"<	c #546270",
"[	c #E2AB2C",
"}	c #E0B11E",
"|	c #ECFD06",
"1	c #3B110F",
"2	c #ECFD01",
"3	c #14963B",
"4	c #149736",
"..................................................................................................................................................................",
"..................................................................................................................................................................",
"..................................................................................................................................................................",
"..................................................................................................................................................................",
"..................................................................................................................................................................",
"..................................................................................................................................................................",
"........+........+.....+......+..+................+........+.....+......+..+...............+........+.....+......+..+...............+........+.....+......+..+....",
"@@@@##@############################@@@@@@@@@@@@#@############################@@@@@@@@@@@#@#############################@@@@@@@@@@#@############################@@@",
"@@@@@##@###+@@@@@@@@@@@@@@@@@@@@@@@@@@@@@@@@@@@##@###+@@@@@@@@@@@@@@@@@@@@@@@@@@@@@@@@@@##@###+@@@@@@@@@@@@@@@@@@@@@@@@@@@@@@@@@@##@###+@@@@@@@@@@@@@@@@@@@@@@@@@@",
"@@@@@##############@######+####+#@#@@@@@@@@@@@@##############@######+####+#@#@@@@@@@@@@@##############@######+####+#@##@@@@@@@@@@##############@######+####+#@#@@@",
"$$$$$$$$$$$$$$$$$$$$$$$$$$$$$$$$$$$$$$$$$$$$$$$$$$$$$$$$$$$$$$$$$$$$$$$$$$$$$$$$$$$$$$$$$$$$$$$$$$$$$$$$$$$$$$$$$$$$$$$$$$$$$$$$$$$$$$$$$$$$$$$$$$$$$$$$$$$$$$$$$$",
"$$$$$$$%%%%%%$$$$+$$$$$$$$$$$$$$$$$$$$$$$$$$$$$$$%%%%%%$$$$+$$$$$$$$$$$$$$$$$$$$$$$$$$$$$$%%%%%%$$$$+$$$$$$$$$$$$$$$$$$$$$$$$$$$$$$%%%%%%$$$$+$$$$$$$$$$$$$$$$$$$$",
"$$$$$$$%&%*%%$$$$$=$$-------;$$$$$$$$$$$$$$$$$$$$%&%*%%$$$$$=$$-------;$$$$$$$$$$$$$$$$$$$%&%*%%$$$$$=$$-------;$$$$$$$$$$$$$$$$$$$%&%*%%$$$$$=$$-------;$$$$$$$$$",
"$$$$$$$%%%%%%=>>>>>$---------;,,,,,,'''' '''''$$$%%%%%%=>>>>>$---------;$$$$$$$$$$$$$$$$$$%%%%%%=>>>>>$---------;$$$$$$$$$$$$$$$$$$%%%%%%=>>>>>$---------;,,,,,,))",
")))))))%&%*%%)!!!!!)----------,,,,,,'''' ''''')))%&%*%%)!!!!!)----------))))))))))))))))))%&%*%%)!!!!!)----------))))))))))))))))))%&%*%%)!!!!!)----------))))))))",
")))))))%%%%%%,~~~~~,-{--{--{--,,,,,,'''' ''''')))%%%%%%,~~~~~,-{--{--{--))))))))))))))))))%%%%%%,~~~~~,-{--{--{--))))))))))))))))))%%%%%%,~~~~~,-{--{--{--))))))))",
"]]]]]]]%&%*%%]^]]]^]----------/////]]]]]]]]]]]]]]%&%*%%]^]]]^]----------//////]]]]]]]]]///%&%*%%]^]]]^]----------//////]]]]]]]]]]]]%&%*%%]^]]]^]----------////////",
"(((((__:%%%%%<<<<<<<-{--{--{--____[[(((((((((((__:%%%%%<<<<<<<-{--{--{--____[(((((((((((__:%%%%%<<<<<<<-{--{--{--____[[____________:%%%%%<<<<<<<-{--{--{--____[___",
"((((}}}:&%*%%<<<<<|<----------}}((((((((((((((}}}:&%*%%<<<<<|<----------}}(((((((((((((}}}:&%*%%<<<<<|<----------}}((___________}}}:&%*%%<<<<<|<----------}}((((__",
"1111111%%%%%%<|<<<<<-{--{--{--1111111111111111111%%%%%%<|<<<<<-{--{--{--111111111111111111%%%%%%<|<<<<<-{--{--{--111111111111111111%%%%%%<|<<<<<-{--{--{--11111111",
"1111111%&%*%%<<<<<<<----------1111121111111111111%&%*%%<<<<<<<----------111111111111111111%&%*%%<<<<<<<----------111111111111111111%&%*%%<<<<<<<----------11111111",
"1111111%%%%%%<|<<<<<-{--{--{--1111111111111111111%%%%%%<|<<<<<-{--{--{--111111111111111111%%%%%%<|<<<<<-{--{--{--111111111111111111%%%%%%<|<<<<<-{--{--{--11111111",
"1111111%*%*%%<<<|<<<----------1111121111111111111%*%*%%<<<|<<<----------111111111111111111%*%*%%<<<|<<<----------111111111111111111%*%*%%<<<|<<<----------11111111",
"1111111%%%%%%<<<<<<<-{--{--{--1111111111111111111%%%%%%<<<<<<<-{--{--{--111111111111111111%%%%%%<<<<<<<-{--{--{--111111111111111111%%%%%%<<<<<<<-{--{--{--11111111",
"1111111%%%%%%<<<|<<<----------1111121111111111111%%%%%%<<<|<<<----------111111111111111111%%%%%%<<<|<<<----------111111111111111111%%%%%%<<<|<<<----------11111111",
"1111111%%%%%%<<<<<<<----------1111111111111111111%%%%%%<<<<<<<----------111111111111111111%%%%%%<<<<<<<----------111111111111111111%%%%%%<<<<<<<----------11111111",
"1111111%%%%%%<<<<<<<----------1111121111111111111%%%%%%<<<<<<<----------111111111111111111%%%%%%<<<<<<<----------111111111111111111%%%%%%<<<<<<<----------11111111",
"1111111%%%%%%<<<<<<<----------1111111111111111111%%%%%%<<<<<<<----------111111111111111111%%%%%%<<<<<<<----------111111111111111111%%%%%%<<<<<<<----------11111111",
"333333333333333333333334444333333333333333333333333333333333333334444333333333333333333333333333333333333344443333333333333333333333333333333333333444433333333333",
"333333333333333333333333334443333333333333333333333333333333333333334443333333333333333333333333333333333333344433333333333333333333333333333333333333433333333333",
"333333333333333333333333333333333333333333333333333333333333333333333333333333333333333333333333333333333333333333333333333333333333333333333333333333333333333333",
"333333333333333333333333333333333333333333333333333333333333333333334444333333333333333333333333333333333344444433333333333333333333333333333333333333333333333333",
"333333333333333333333333333333333333333333333333333333333333333333333333333333333333333333333333333333333333333333333333333333333333333333333333333333333333333333",
"333333333333333333333333333333333333333333333333333333333333333333333333333333333333333333333333333333333333333333333333333333333333333333333333333333333333333333",
"333333333333333333333333333333333333333333333333333333333333333333333333333333333333333333333333333333333333333333333333333333333333333333333333333333333333333333",
"333333333333333333333333333333333333333333333333333333333333333333333333333333333333333333333333333333333333333333333333333333333333333333333333333333333333333333",
"333333333333333333333333333333333333333333333333333333333333333333333333333333333333333333333333333333333333333333333333333333333333333333333333333333333333333333",
"333333333333333333333333333333333333333333333333333333333333333333333333333333333333333333333333333333333333333333333333333333333333333333333333333333333333333333",
"333333333333333333333333333333333333333333333333333333333333333333333333333333333333333333333333333333333333333333333333333333333333333333333333333333333333333333",
"333333333333333333333333333333333333333333333333333333333333333333333333333333333333333333333333333333333333333333333333333333333333333333333333333333333333333333",
"333333333333333333333333333333333333333333333333333333333333333333333333333333333333333333333333333333333333333333333333333333333333333333333333333333333333333333"};
